<svg width="593" height="586" viewBox="0 0 593 586" fill="none" xmlns="http://www.w3.org/2000/svg">
<path d="M155.263 340.043C175.238 397.773 231.27 439.346 297.271 439.347C363.273 439.347 419.306 397.774 439.281 340.043H593C569.748 479.129 445.851 585.295 296.499 585.295C147.147 585.295 23.2517 479.129 0 340.043H155.263ZM296.5 174C363.603 174 418 227.054 418 292.5C418 357.946 363.603 411 296.5 411C229.397 411 175 357.946 175 292.5C175 227.054 229.397 174 296.5 174ZM296.499 0C445.852 0 569.748 106.166 593 245.252H438.75C418.328 188.305 362.698 147.452 297.271 147.452C231.845 147.452 176.216 188.305 155.794 245.252H0C23.2516 106.166 147.147 0.000329215 296.499 0Z" fill="#D9D9D9"/>
</svg>
